<svg width="400" height="32" viewBox="0 0 400 32" fill="none" xmlns="http://www.w3.org/2000/svg">
<path d="M368.307 31.5751H361.428L351.24 10.5234H360.987L366.279 21.0493L372.012 10.5234H379.95L368.307 31.5751Z" fill="#FDFDFD"/>
<path d="M331.735 18.5261H341.217C340.335 16.1683 337.953 15.1158 336.454 15.1158C333.94 15.1158 332.22 16.3368 331.735 18.5261ZM350.919 23.368H331.779C332.264 25.5574 333.94 26.9468 336.718 26.9468C338.659 26.9468 340.423 26.6942 341.217 24.8416H350.478C348.405 30.4834 342.804 31.9992 336.718 31.9992C327.633 31.9992 321.371 29.094 321.371 21.0523C321.371 13.3895 327.942 10.1055 336.498 10.1055C342.54 10.1055 351.492 12.8001 350.919 23.368Z" fill="#FDFDFD"/>
<path d="M289.178 10.5234H297.557L309.023 21.4282V10.5234H317.844V31.5751H309.464L297.998 20.2493V31.5751H289.178V10.5234Z" fill="#FDFDFD"/>
<path d="M269.712 23.7048C260.319 22.6522 257.937 20.0418 258.29 16.2104C258.643 12.3369 263.494 10.1055 271.653 10.1055C279.768 10.1055 284.619 13.0106 285.016 17.8104H276.107C275.401 15.4526 272.976 14.9052 271.653 14.9052C269.756 14.9052 268.742 15.7052 268.742 16.4631C268.742 17.4314 269.183 17.7683 273.417 18.3577C280.694 19.3682 285.633 20.4629 285.633 25.389C285.633 29.6835 281.708 31.9992 272.094 31.9992C262.215 31.9992 258.819 29.5151 257.717 24.1259H266.978C267.772 25.4311 268.61 27.1994 271.653 27.1994C273.637 27.1994 274.564 26.4836 274.564 25.6416C274.564 24.7574 274.034 24.2101 269.712 23.7048Z" fill="#FDFDFD"/>
<path d="M235.825 18.5261H245.307C244.425 16.1683 242.043 15.1158 240.544 15.1158C238.03 15.1158 236.31 16.3368 235.825 18.5261ZM255.009 23.368H235.869C236.354 25.5574 238.03 26.9468 240.808 26.9468C242.749 26.9468 244.513 26.6942 245.307 24.8416H254.568C252.495 30.4834 246.894 31.9992 240.808 31.9992C231.723 31.9992 225.461 29.094 225.461 21.0523C225.461 13.3895 232.032 10.1055 240.588 10.1055C246.63 10.1055 255.582 12.8001 255.009 23.368Z" fill="#FDFDFD"/>
<path d="M207.816 16.2074H205.787V21.4703H207.816C210.242 21.4703 212.182 20.7966 212.182 18.8599C212.182 16.9231 210.242 16.2074 207.816 16.2074ZM205.787 27.1542V31.5751H195.203V10.5234H210.33C217.739 10.5234 223.252 12.7128 223.252 18.8599C223.252 21.9755 221.796 24.0807 219.371 25.3859L222.105 31.5751H212.182L209.933 27.1542H205.787Z" fill="#FDFDFD"/>
<path d="M172.428 18.5261H181.91C181.028 16.1683 178.647 15.1158 177.147 15.1158C174.633 15.1158 172.913 16.3368 172.428 18.5261ZM191.612 23.368H172.472C172.958 25.5574 174.633 26.9468 177.412 26.9468C179.352 26.9468 181.116 26.6942 181.91 24.8416H191.171C189.099 30.4834 183.498 31.9992 177.412 31.9992C168.327 31.9992 162.064 29.094 162.064 21.0523C162.064 13.3895 168.636 10.1055 177.191 10.1055C183.233 10.1055 192.186 12.8001 191.612 23.368Z" fill="#FDFDFD"/>
<path d="M141.961 18.7336H145.004C147.43 18.7336 148.356 17.9757 148.356 17.0073C148.356 16.039 147.43 15.3653 145.004 15.3653H141.961V18.7336ZM141.961 26.7332H145.004C147.43 26.7332 148.356 26.0174 148.356 25.0491C148.356 24.0807 147.43 23.3649 145.004 23.3649H141.961V26.7332ZM146.504 31.5751H131.377V10.5234H147.694C152.59 10.5234 158.235 10.5234 158.235 16.039C158.235 18.0599 156.735 19.9125 154.089 20.5861C157 21.1335 159.425 22.3966 159.425 25.5543C159.425 31.2382 153.913 31.5751 146.504 31.5751Z" fill="#FDFDFD"/>
<path d="M104.726 24.5845V21.6794C104.462 22.2267 103.271 22.2267 101.815 22.4373C100.581 22.6057 99.9191 23.2793 99.9191 24.0793C99.9191 24.7108 100.36 25.4687 101.771 25.4687C102.962 25.4687 104.197 25.174 104.726 24.5845ZM114.869 14.4376V22.0162C114.869 22.5215 115.134 22.7741 115.663 22.7741H116.413V31.5737H107.99C105.785 31.5737 104.726 30.5632 104.726 28.458V27.5739C102.786 29.9737 99.6104 31.9947 95.8176 31.9947C92.5982 31.9947 88.8496 30.6895 88.8496 25.4687C88.8496 21.3847 92.0249 19.869 93.9654 19.3216C100.536 17.427 104.726 18.9848 104.726 17.2165C104.726 16.0376 103.403 15.2376 101.683 15.2376C99.7868 15.2376 98.8165 15.9113 98.1109 17.1743H89.5993C91.2752 11.2378 95.7735 10.101 102.609 10.101C105.255 10.101 114.869 9.59576 114.869 14.4376Z" fill="#FDFDFD"/>
<path d="M75.1947 31.5751V23.3228L70.0349 31.5751H63.155L56.5839 20.3335V31.5751H48.6016V10.5234H59.4064L67.5652 24.2491L75.4152 10.5234H85.3381V31.5751H75.1947Z" fill="#FDFDFD"/>
<path d="M33.3594 4.67346C33.3594 1.2631 35.785 0 38.7397 0C41.6504 0 44.076 1.2631 44.076 4.67346C44.076 8.08383 41.6504 9.34693 38.7397 9.34693C35.785 9.34693 33.3594 8.08383 33.3594 4.67346ZM33.624 31.5774V10.5258H43.7673V31.5774H33.624Z" fill="#FDFDFD"/>
<path d="M18.6108 21.8929V20.2088C18.3462 17.5984 16.7585 15.788 14.8181 15.788C12.7012 15.788 11.0254 17.1774 11.0254 21.0509C11.0254 24.9244 12.7012 26.3138 14.8181 26.3138C16.7585 26.3138 18.3462 24.5033 18.6108 21.8929ZM28.7541 5.47266V31.5767H18.6108V26.3559C17.4642 29.8083 14.9063 31.9977 10.2315 31.9977C4.01323 31.9977 0 29.0926 0 21.0509C0 13.0091 4.01323 10.104 10.2315 10.104C14.9063 10.104 17.4642 12.2934 18.6108 15.7037V5.47266H28.7541Z" fill="#FDFDFD"/>
<path d="M389.879 20.9019V14.299H393.384C393.665 14.299 393.971 14.3766 394.302 14.5317C394.634 14.6808 394.915 14.9134 395.146 15.2295C395.383 15.5397 395.502 15.9334 395.502 16.4105C395.502 16.8937 395.38 17.3052 395.137 17.6452C394.893 17.9792 394.596 18.2327 394.246 18.4057C393.903 18.5787 393.578 18.6652 393.272 18.6652H390.741V17.5915H392.803C393.009 17.5915 393.231 17.4931 393.468 17.2963C393.712 17.0994 393.834 16.8042 393.834 16.4105C393.834 16.0049 393.712 15.7306 393.468 15.5874C393.231 15.4443 393.022 15.3727 392.84 15.3727H391.397V20.9019H389.879ZM394.059 17.7884L395.783 20.9019H394.115L392.428 17.7884H394.059ZM392.503 24.8385C391.466 24.8385 390.494 24.6536 389.589 24.2838C388.683 23.914 387.886 23.4011 387.199 22.745C386.512 22.0889 385.974 21.3284 385.587 20.4635C385.2 19.5986 385.006 18.6711 385.006 17.681C385.006 16.6909 385.2 15.7634 385.587 14.8985C385.974 14.0336 386.512 13.2731 387.199 12.617C387.886 11.9609 388.683 11.448 389.589 11.0781C390.494 10.7083 391.466 10.5234 392.503 10.5234C393.54 10.5234 394.512 10.7083 395.418 11.0781C396.324 11.448 397.12 11.9609 397.807 12.617C398.495 13.2731 399.032 14.0336 399.419 14.8985C399.807 15.7634 400 16.6909 400 17.681C400 18.6711 399.807 19.5986 399.419 20.4635C399.032 21.3284 398.495 22.0889 397.807 22.745C397.12 23.4011 396.324 23.914 395.418 24.2838C394.512 24.6536 393.54 24.8385 392.503 24.8385ZM392.503 23.1207C393.553 23.1207 394.509 22.8762 395.371 22.3871C396.233 21.898 396.92 21.2419 397.433 20.4188C397.945 19.5956 398.201 18.6831 398.201 17.681C398.201 16.6789 397.945 15.7663 397.433 14.9432C396.92 14.1201 396.233 13.464 395.371 12.9749C394.509 12.4858 393.553 12.2413 392.503 12.2413C391.453 12.2413 390.498 12.4858 389.635 12.9749C388.773 13.464 388.086 14.1201 387.574 14.9432C387.061 15.7663 386.805 16.6789 386.805 17.681C386.805 18.6831 387.061 19.5956 387.574 20.4188C388.086 21.2419 388.773 21.898 389.635 22.3871C390.498 22.8762 391.453 23.1207 392.503 23.1207Z" fill="white"/>
</svg>
