<svg width="350" height="28" viewBox="0 0 350 28" fill="none" xmlns="http://www.w3.org/2000/svg">
<path d="M322.27 27.6272H316.25L307.336 9.20703H315.864L320.495 18.4171L325.511 9.20703H332.457L322.27 27.6272Z" fill="#FDFDFD"/>
<path d="M290.268 16.2118H298.564C297.792 14.1488 295.709 13.2277 294.397 13.2277C292.197 13.2277 290.692 14.2961 290.268 16.2118ZM307.054 20.4485H290.306C290.731 22.3641 292.197 23.5799 294.628 23.5799C296.326 23.5799 297.87 23.3588 298.564 21.7379H306.668C304.854 26.6745 299.953 28.0007 294.628 28.0007C286.679 28.0007 281.199 25.4587 281.199 18.4222C281.199 11.7173 286.949 8.84375 294.435 8.84375C299.722 8.84375 307.555 11.2015 307.054 20.4485Z" fill="#FDFDFD"/>
<path d="M253.031 9.20703H260.363L270.396 18.7487V9.20703H278.114V27.6272H270.782L260.749 17.7171V27.6272H253.031V9.20703Z" fill="#FDFDFD"/>
<path d="M235.998 20.7432C227.779 19.8222 225.695 17.5381 226.004 14.1856C226.312 10.7963 230.557 8.84375 237.696 8.84375C244.796 8.84375 249.041 11.3857 249.388 15.5855H241.593C240.976 13.5225 238.854 13.0435 237.696 13.0435C236.037 13.0435 235.149 13.7435 235.149 14.4066C235.149 15.254 235.535 15.5487 239.24 16.0645C245.607 16.9486 249.929 17.9065 249.929 22.2168C249.929 25.9745 246.494 28.0007 238.082 28.0007C229.438 28.0007 226.467 25.8271 225.502 21.1116H233.606C234.3 22.2536 235.033 23.8009 237.696 23.8009C239.432 23.8009 240.243 23.1746 240.243 22.4378C240.243 21.6642 239.78 21.1853 235.998 20.7432Z" fill="#FDFDFD"/>
<path d="M206.346 16.2118H214.642C213.87 14.1488 211.787 13.2277 210.475 13.2277C208.275 13.2277 206.77 14.2961 206.346 16.2118ZM223.132 20.4485H206.384C206.809 22.3641 208.275 23.5799 210.706 23.5799C212.404 23.5799 213.948 23.3588 214.642 21.7379H222.746C220.932 26.6745 216.031 28.0007 210.706 28.0007C202.757 28.0007 197.277 25.4587 197.277 18.4222C197.277 11.7173 203.027 8.84375 210.513 8.84375C215.8 8.84375 223.633 11.2015 223.132 20.4485Z" fill="#FDFDFD"/>
<path d="M181.839 14.1805H180.064V18.7855H181.839C183.961 18.7855 185.659 18.1961 185.659 16.5014C185.659 14.8068 183.961 14.1805 181.839 14.1805ZM180.064 23.759V27.6272H170.803V9.20703H184.039C190.522 9.20703 195.345 11.1227 195.345 16.5014C195.345 19.2276 194.072 21.0696 191.949 22.2117L194.342 27.6272H185.659L183.691 23.759H180.064Z" fill="#FDFDFD"/>
<path d="M150.875 16.2118H159.172C158.4 14.1488 156.316 13.2277 155.004 13.2277C152.804 13.2277 151.299 14.2961 150.875 16.2118ZM167.661 20.4485H150.914C151.338 22.3641 152.804 23.5799 155.236 23.5799C156.933 23.5799 158.477 23.3588 159.172 21.7379H167.275C165.462 26.6745 160.561 28.0007 155.236 28.0007C147.286 28.0007 141.807 25.4587 141.807 18.4222C141.807 11.7173 147.556 8.84375 155.043 8.84375C160.329 8.84375 168.163 11.2015 167.661 20.4485Z" fill="#FDFDFD"/>
<path d="M124.216 16.3909H126.879C129.001 16.3909 129.812 15.7278 129.812 14.8804C129.812 14.0331 129.001 13.4437 126.879 13.4437H124.216V16.3909ZM124.216 23.3906H126.879C129.001 23.3906 129.812 22.7643 129.812 21.9169C129.812 21.0696 129.001 20.4433 126.879 20.4433H124.216V23.3906ZM128.191 27.6272H114.955V9.20703H129.233C133.516 9.20703 138.456 9.20703 138.456 14.0331C138.456 15.8014 137.144 17.4224 134.828 18.0119C137.375 18.4908 139.498 19.596 139.498 22.359C139.498 27.3325 134.674 27.6272 128.191 27.6272Z" fill="#FDFDFD"/>
<path d="M91.6361 21.5105V18.9685C91.4045 19.4474 90.3627 19.4474 89.0892 19.6316C88.0087 19.779 87.4299 20.3684 87.4299 21.0684C87.4299 21.621 87.8158 22.2841 89.0506 22.2841C90.0925 22.2841 91.173 22.0262 91.6361 21.5105ZM100.511 12.632V19.2632C100.511 19.7053 100.743 19.9263 101.206 19.9263H101.862V27.626H94.4917C92.5622 27.626 91.6361 26.7418 91.6361 24.8998V24.1261C89.9382 26.226 87.1598 27.9944 83.8412 27.9944C81.0242 27.9944 77.7441 26.8523 77.7441 22.2841C77.7441 18.7106 80.5225 17.3844 82.2204 16.9054C87.9702 15.2476 91.6361 16.6107 91.6361 15.0634C91.6361 14.0319 90.4784 13.3319 88.9735 13.3319C87.3141 13.3319 86.4652 13.9214 85.8478 15.0266H78.4001C79.8665 9.83209 83.8026 8.8374 89.7838 8.8374C92.0991 8.8374 100.511 8.39531 100.511 12.632Z" fill="#FDFDFD"/>
<path d="M65.7944 27.6272V20.4065L61.2795 27.6272H55.2597L49.51 17.7908V27.6272H42.5254V9.20703H51.9796L59.1185 21.217L65.9873 9.20703H74.6698V27.6272H65.7944Z" fill="#FDFDFD"/>
<path d="M29.1895 4.08928C29.1895 1.10521 31.3118 0 33.8973 0C36.4441 0 38.5665 1.10521 38.5665 4.08928C38.5665 7.07334 36.4441 8.17855 33.8973 8.17855C31.3118 8.17855 29.1895 7.07334 29.1895 4.08928ZM29.421 27.6302V9.21008H38.2964V27.6302H29.421Z" fill="#FDFDFD"/>
<path d="M16.2844 19.1568V17.6832C16.0529 15.3991 14.6637 13.8149 12.9658 13.8149C11.1136 13.8149 9.64718 15.0307 9.64718 18.42C9.64718 21.8093 11.1136 23.025 12.9658 23.025C14.6637 23.025 16.0529 21.4409 16.2844 19.1568ZM25.1598 4.78906V27.6301H16.2844V23.0619C15.2811 26.0828 13.043 27.9985 8.95258 27.9985C3.51157 27.9985 0 25.4565 0 18.42C0 11.3835 3.51157 8.8415 8.95258 8.8415C13.043 8.8415 15.2811 10.7572 16.2844 13.7413V4.78906H25.1598Z" fill="#FDFDFD"/>
<path d="M341.143 18.2882V12.5107H344.21C344.456 12.5107 344.724 12.5785 345.013 12.7142C345.303 12.8447 345.549 13.0482 345.751 13.3249C345.959 13.5962 346.063 13.9407 346.063 14.3582C346.063 14.781 345.956 15.1411 345.743 15.4386C345.53 15.7308 345.27 15.9526 344.964 16.104C344.664 16.2554 344.379 16.331 344.111 16.331H341.897V15.3916H343.701C343.882 15.3916 344.076 15.3055 344.284 15.1333C344.497 14.961 344.603 14.7027 344.603 14.3582C344.603 14.0033 344.497 13.7633 344.284 13.638C344.076 13.5127 343.893 13.4501 343.734 13.4501H342.471V18.2882H341.143ZM344.8 15.5638L346.309 18.2882H344.849L343.373 15.5638H344.8ZM343.439 21.7327C342.532 21.7327 341.681 21.5709 340.889 21.2474C340.096 20.9238 339.399 20.475 338.798 19.9009C338.196 19.3268 337.726 18.6613 337.387 17.9046C337.048 17.1478 336.879 16.3362 336.879 15.4699C336.879 14.6035 337.048 13.792 337.387 13.0352C337.726 12.2784 338.196 11.613 338.798 11.0389C339.399 10.4648 340.096 10.016 340.889 9.6924C341.681 9.36882 342.532 9.20703 343.439 9.20703C344.346 9.20703 345.197 9.36882 345.989 9.6924C346.782 10.016 347.479 10.4648 348.08 11.0389C348.682 11.613 349.152 12.2784 349.491 13.0352C349.83 13.792 349.999 14.6035 349.999 15.4699C349.999 16.3362 349.83 17.1478 349.491 17.9046C349.152 18.6613 348.682 19.3268 348.08 19.9009C347.479 20.475 346.782 20.9238 345.989 21.2474C345.197 21.5709 344.346 21.7327 343.439 21.7327ZM343.439 20.2297C344.357 20.2297 345.194 20.0157 345.948 19.5877C346.703 19.1598 347.304 18.5857 347.752 17.8654C348.201 17.1452 348.425 16.3467 348.425 15.4699C348.425 14.5931 348.201 13.7946 347.752 13.0743C347.304 12.3541 346.703 11.78 345.948 11.3521C345.194 10.9241 344.357 10.7101 343.439 10.7101C342.521 10.7101 341.684 10.9241 340.93 11.3521C340.175 11.78 339.574 12.3541 339.126 13.0743C338.677 13.7946 338.453 14.5931 338.453 15.4699C338.453 16.3467 338.677 17.1452 339.126 17.8654C339.574 18.5857 340.175 19.1598 340.93 19.5877C341.684 20.0157 342.521 20.2297 343.439 20.2297Z" fill="white"/>
</svg>
